<svg width="73" height="72" viewBox="0 0 73 72" fill="none" xmlns="http://www.w3.org/2000/svg">
<path d="M6.92676 38.6094H66.3474V65.3487H6.92676V38.6094Z" stroke="black" stroke-width="2.40691" stroke-linejoin="round"/>
<path d="M6.92676 14.8633H18.8109V23.7764H6.92676V14.8633Z" stroke="black" stroke-width="2.52337" stroke-linejoin="round"/>
<path d="M51.501 14.8633H66.3561V23.7764H51.501V14.8633Z" stroke="black" stroke-width="2.52337" stroke-linejoin="round"/>
<path d="M28.8581 51.6521H41.4267V61.2496H28.8581V51.6521Z" stroke="black" stroke-width="2.28657" stroke-linejoin="round"/>
<path d="M24.7578 38.6094L24.7578 65.3487" stroke="black" stroke-width="2.28657" stroke-linejoin="round"/>
<circle cx="29.1992" cy="43.0806" r="1.48439" fill="black"/>
<circle cx="35.1455" cy="43.0806" r="1.48439" fill="black"/>
<circle cx="41.0938" cy="43.0806" r="1.48439" fill="black"/>
<path d="M45.5566 38.6094L45.5566 65.3487" stroke="black" stroke-width="2.40691" stroke-linejoin="round"/>
<path d="M66.3438 47.5278H45.5465" stroke="black" stroke-width="2.28657" stroke-linejoin="round"/>
<path d="M24.7578 47.5278H6.93162" stroke="black" stroke-width="2.28657" stroke-linejoin="round"/>
<path d="M24.7578 56.4424H6.93162" stroke="black" stroke-width="2.28657" stroke-linejoin="round"/>
<path d="M41.0985 7.4248V14.8524L45.555 19.3089V23.7655H24.7578V19.3089L29.2144 14.8524V7.4248" stroke="black" stroke-width="2.52337" stroke-linecap="round" stroke-linejoin="round"/>
</svg>
